<?xml version="1.0" encoding="utf-8"?>
<!-- Generator: Adobe Illustrator 20.0.0, SVG Export Plug-In . SVG Version: 6.00 Build 0)  -->
<svg version="1.1" id="Layer_1" xmlns="http://www.w3.org/2000/svg" xmlns:xlink="http://www.w3.org/1999/xlink" x="0px" y="0px"
	 viewBox="0 0 64 64" style="enable-background:new 0 0 64 64;" xml:space="preserve">
<style type="text/css">
	.st0{fill:#3853A3;}
</style>
<g>
	<path class="st0" d="M58.7,30.6c-4.7-3.6-12-7.8-19.2-8c-0.1,0-0.1,0-0.2,0.1c-0.3,0.4-0.5,0.9-0.8,1.3c0,0.1-0.1,0.1-0.2,0.1
		c-2.5-0.3-6.4-0.7-10.2-0.4c-9.5,0.7-17.8,2.5-24.3,7.4c-1.7,1.3-3.1,3-3.1,3.7c0,0.9,0.6,4.9,1.7,7.9c2.8,7.8,7.8,13.9,14.7,17.3
		c17.2,8.5,35,0.7,41.7-11.2c1.4-2.5,4.2-7.7,4.5-13.2C63.4,34.8,60.3,31.8,58.7,30.6z M21.2,40c-0.1,0-0.3,0-0.5,0.1
		c-0.5,0.1-0.7,0.4-0.7,1c0,0.5,0,1.2,0,2v1.9c0,0.5,0,0.5-0.2,0.6c-1.2,0.6-3,0.8-4.5,0.8c-4.6,0-8.6-2-8.6-6.6
		c0-2.7,1.5-4.6,3.2-5.5c1.8-1,3.5-1.1,5-1.1c1.3,0,2.9,0.2,3.3,0.3c0.4,0.1,1,0.2,1.5,0.2c0.2,0,0.3,0.1,0.3,0.2
		c0,0.2-0.1,0.7-0.1,2.8c0,0.3-0.1,0.4-0.2,0.4c-0.1,0-0.2-0.1-0.2-0.2c-0.1-0.4-0.1-0.9-0.6-1.4c-0.6-0.5-2.1-1.3-4.2-1.3
		c-1,0-2.4,0.1-3.7,1.1c-1,0.8-1.7,2.1-1.7,4.2c0,3.6,2.6,6.4,6.5,6.4c0.5,0,1.1,0,1.6-0.2c0.3-0.1,0.4-0.3,0.4-0.6V43
		c0-0.8,0-1.5,0-2c0-0.6-0.2-0.8-0.8-1c-0.1,0-0.5-0.1-0.7-0.1c-0.2,0-0.3,0-0.3-0.1c0-0.1,0.1-0.2,0.4-0.2c1,0,2.1,0.1,2.7,0.1
		c0.6,0,1.6-0.1,2.2-0.1c0.2,0,0.4,0,0.4,0.2C21.5,39.9,21.3,40,21.2,40z M36.3,45.4c-0.1,0.3-0.2,0.4-0.5,0.5
		c-0.7,0.3-2.2,0.4-3.4,0.4c-2.6,0-4.7-0.5-6.4-1.8c-1.8-1.5-2.3-3.4-2.3-5c0-1.2,0.4-3.2,2.2-4.6c1.3-1.1,3.1-1.8,5.9-1.8
		c1.2,0,1.8,0.1,2.7,0.2c0.7,0.1,1.3,0.2,1.9,0.3c0.2,0,0.3,0.1,0.3,0.2c0,0.1-0.1,0.3-0.1,0.9c0,0.6,0,1.5-0.1,1.8
		c0,0.3-0.1,0.4-0.2,0.4c-0.1,0-0.2-0.1-0.2-0.4c0-0.5-0.3-1.1-0.7-1.6c-0.6-0.6-2.1-1.1-3.8-1.1c-1.6,0-2.7,0.4-3.5,1.1
		c-1.4,1.1-1.7,2.7-1.7,4.4c0,4,3.4,6,5.9,6c1.7,0,2.7-0.2,3.4-0.9c0.3-0.3,0.6-0.8,0.6-1.1c0.1-0.3,0.1-0.3,0.2-0.3
		c0.1,0,0.2,0.1,0.2,0.3C36.7,43.3,36.5,44.8,36.3,45.4z M57.3,46c-0.5,0-3-0.1-3.8-0.1c-0.4,0-0.5-0.1-0.5-0.2
		c0-0.1,0.1-0.1,0.2-0.2c0.1,0,0.2-0.3,0.1-0.7l-1.1-7.5H52L48,45c-0.4,0.8-0.5,0.9-0.7,0.9c-0.2,0-0.4-0.3-0.7-0.8
		c-0.4-0.8-1.9-3.4-2.1-3.9c-0.2-0.4-1.3-2.5-1.9-3.8h-0.1l-1,6.8c0,0.3-0.1,0.5-0.1,0.8c0,0.3,0.2,0.5,0.6,0.5
		c0.3,0.1,0.6,0.1,0.8,0.1c0.1,0,0.3,0,0.3,0.1c0,0.2-0.2,0.2-0.4,0.2c-0.8,0-1.6-0.1-2-0.1c-0.4,0-1.3,0.1-1.8,0.1
		c-0.2,0-0.3,0-0.3-0.2c0-0.1,0.1-0.1,0.3-0.1c0.1,0,0.3,0,0.6-0.1c0.5-0.1,0.7-0.8,0.8-1.3l1.8-11.1c0.1-0.3,0.2-0.4,0.3-0.4
		c0.1,0,0.3,0.1,0.5,0.5l5.1,9.6l5.1-9.7c0.1-0.3,0.2-0.4,0.4-0.4c0.2,0,0.3,0.2,0.3,0.5l1.7,10.5c0.2,1.1,0.4,1.6,0.9,1.7
		c0.5,0.2,0.9,0.2,1.2,0.2c0.2,0,0.3,0,0.3,0.1C57.7,46,57.5,46,57.3,46z"/>
	<path class="st0" d="M18.8,10.3c18.5-6.1,37.8,3,42.9,12c-0.7-3.8-3-6.7-4.7-9.1c-4.3-5.9-10.6-10-19-11.9
		c-4.6-1-12.2-0.4-16.7,1.3C13.5,5.6,6.5,11.5,2.9,20C6.9,15,12.1,12.5,18.8,10.3z"/>
	<path class="st0" d="M5.1,22.4c2.6-2,5.8-3.8,9-5c15.5-5.9,32.1-2.6,40.7,3c2,1.3,4.9,3.3,8.4,7.6c-1.4-6.1-10.3-14.3-16.9-15.7
		c-0.1,0-0.2,0-0.2,0.1c-0.4,0.6-0.8,1.3-1.1,1.9c0,0.1-0.1,0.1-0.2,0.1c-3.4-1.1-5.6-1.5-9.7-2c0,0,0,0,0,0c-3.4-0.1-4.6,0-6.8,0.1
		c-9.3,0.8-17.5,3.4-23.9,8.4c-1.8,1.4-2.9,2.4-3.4,5.4C1.1,26.1,2.8,24.2,5.1,22.4z"/>
	<path class="st0" d="M33.9,19.1c9.5,0.7,16.6,2.4,24.3,8c1.8,1.3,3.3,2.7,5.4,5.2c-0.4-6.3-13-13.7-20.6-15.3c-0.1,0-0.2,0-0.2,0.1
		c-0.2,0.4-0.5,1-0.8,1.4c0,0.1-0.1,0.1-0.2,0.1c-3.8-0.9-8.8-1.2-13-0.9c-9.5,0.8-15.7,2.6-22.1,6.5c-1.9,1.1-4.5,3-5.8,4.6
		c-0.2,0.3-0.3,1.3-0.3,2.3c5.1-5.1,7.9-7,13.8-9.3C17.2,20.7,25.9,18.5,33.9,19.1z"/>
</g>
</svg>
